<svg xmlns="http://www.w3.org/2000/svg" width="108" height="24" viewBox="0 0 108 24">
  <g fill="none" fill-rule="evenodd">
    <path fill="#F25022" d="M0 0h10.8v10.8H0z"/>
    <path fill="#7FBA00" d="M12 0h10.8v10.8H12z"/>
    <path fill="#00A4EF" d="M0 12h10.8v10.8H0z"/>
    <path fill="#FFB900" d="M12 12h10.8v10.8H12z"/>
    <path fill="#737373" d="M28.5 3.5h2.9l3.4 10.9h.1l3.4-10.9h2.9v15.2h-2.1V7.8h-.1l-3.2 10.8h-1.9l-3.2-10.8h-.1v10.8h-2.1V3.5zm19 0c1 0 1.8.2 2.5.5.7.3 1.2.8 1.6 1.4.4.6.6 1.3.6 2.1 0 .8-.2 1.5-.6 2.1-.4.6-.9 1.1-1.6 1.4-.7.3-1.5.5-2.5.5h-2.1v6.2h-2.2V3.5h4.3zm-.2 6.3c.7 0 1.2-.2 1.6-.5.4-.4.5-.8.5-1.4 0-.6-.2-1.1-.5-1.4-.4-.3-.9-.5-1.6-.5h-2v3.8h2zm9.2-6.3c1 0 1.8.2 2.5.5.7.3 1.2.8 1.6 1.4.4.6.6 1.3.6 2.1 0 .8-.2 1.5-.6 2.1-.4.6-.9 1.1-1.6 1.4-.7.3-1.5.5-2.5.5h-2.1v6.2h-2.2V3.5h4.3zm-.2 6.3c.7 0 1.2-.2 1.6-.5.4-.4.5-.8.5-1.4 0-.6-.2-1.1-.5-1.4-.4-.3-.9-.5-1.6-.5h-2v3.8h2zm10.3 2.1c.3.5.8.9 1.4 1.1.6.3 1.3.4 2.1.4.6 0 1.1-.1 1.5-.2.5-.1.8-.3 1.1-.6.3-.2.5-.5.5-.9 0-.5-.2-.8-.5-1.1-.4-.3-.8-.5-1.4-.7l-2.4-.6c-.9-.2-1.6-.6-2.2-1.1-.6-.5-.9-1.2-.9-2.1 0-.7.2-1.3.6-1.8.4-.5 1-1 1.7-1.3.7-.3 1.6-.5 2.5-.5 1 0 1.9.2 2.6.5s1.3.8 1.7 1.4c.4.6.7 1.3.7 2h-2.2c0-.5-.1-.9-.4-1.3-.3-.4-.6-.6-1.1-.8-.5-.2-1-.3-1.5-.3-.5 0-.9.1-1.3.2-.4.1-.7.3-1 .6-.2.2-.4.5-.4.9 0 .5.2.9.6 1.2.4.3 1 .5 1.7.7l2.2.5c1 .2 1.8.6 2.3 1.2.6.6.9 1.3.9 2.2 0 .7-.2 1.4-.6 1.9-.4.6-1 1-1.8 1.3-.8.3-1.7.5-2.7.5-1.1 0-2-.2-2.8-.6-.8-.4-1.4-.9-1.9-1.6-.5-.7-.7-1.5-.8-2.3h2.3c0 .5.2 1 .4 1.4zm12.7-2c0 1.2.2 2.2.7 3.1.5.9 1.1 1.6 1.9 2.1.8.5 1.7.7 2.7.7s1.9-.2 2.7-.7c.8-.5 1.4-1.2 1.9-2.1.5-.9.7-1.9.7-3.1s-.2-2.2-.7-3.1c-.5-.9-1.1-1.6-1.9-2.1-.8-.5-1.7-.7-2.7-.7s-1.9.2-2.7.7c-.8.5-1.4 1.2-1.9 2.1-.5.9-.7 1.9-.7 3.1zm2.2 0c0-.9.1-1.6.4-2.3.3-.7.7-1.2 1.2-1.5.5-.4 1.1-.5 1.8-.5s1.3.2 1.8.5c.5.4.9.8 1.2 1.5.3.7.4 1.4.4 2.3s-.1 1.6-.4 2.3c-.3.7-.7 1.2-1.2 1.5-.5.4-1.1.5-1.8.5s-1.3-.2-1.8-.5c-.5-.4-.9-.8-1.2-1.5-.3-.7-.4-1.4-.4-2.3zm13.9 4.5c-.6-.3-1.1-.7-1.4-1.3-.4-.6-.5-1.2-.5-2h2.2c0 .4.1.8.3 1.1.2.3.5.6.9.7.4.2.8.3 1.3.3.5 0 1-.1 1.4-.3.4-.2.7-.5.9-.8.2-.4.3-.8.3-1.2 0-.5-.1-.9-.4-1.3-.2-.4-.6-.7-1-.9-.4-.2-.9-.3-1.5-.3h-1.2v-1.8h1.2c.5 0 1-.1 1.4-.3.4-.2.7-.4.9-.8.2-.3.3-.7.3-1.2 0-.4-.1-.8-.3-1.1-.2-.3-.5-.6-.8-.7-.4-.2-.8-.3-1.2-.3-.5 0-.9.1-1.3.3-.4.2-.7.4-.9.7-.2.3-.3.7-.4 1.1h-2.1c0-.7.2-1.4.5-2 .4-.6.8-1 1.5-1.3.6-.3 1.4-.5 2.3-.5.9 0 1.6.2 2.3.5.6.3 1.1.8 1.5 1.3.4.6.5 1.2.5 1.9 0 .8-.2 1.4-.6 1.9-.4.5-.9.9-1.5 1.1v.1c.8.2 1.4.5 1.8 1.1.4.6.6 1.2.6 2 0 .8-.2 1.5-.6 2.1-.4.6-1 1.1-1.6 1.4-.7.3-1.5.5-2.4.5-1 0-1.8-.2-2.4-.5zm13.3.5c-.7-.3-1.3-.8-1.7-1.4-.4-.6-.7-1.4-.7-2.3h2.2c0 .5.2.9.4 1.3.3.4.6.6 1.1.8.5.2 1 .3 1.6.3.6 0 1.1-.1 1.6-.3.5-.2.8-.5 1.1-.9.3-.4.4-.9.4-1.4 0-.6-.2-1-.5-1.4-.3-.4-.8-.7-1.3-.9-.5-.2-1.1-.3-1.8-.3-.4 0-.9 0-1.3.1-.4.1-.8.2-1.1.3l-.5-1.6 3.8-4.1h-5.9V3.5h8.5v1.6l-3.6 3.9c.7 0 1.4.2 2 .5.6.3 1.1.7 1.5 1.3.4.6.6 1.3.6 2.1 0 .9-.2 1.7-.7 2.4-.5.7-1.1 1.2-1.9 1.6-.8.4-1.7.6-2.7.6-.9 0-1.7-.2-2.4-.5z"/>
  </g>
</svg>
