<svg width="32" height="20" viewBox="0 0 36 24" fill="none" xmlns="http://www.w3.org/2000/svg">
  <path d="M10.0612 10.0071C4.63381 10.0072 0.576899 14.4499 0.271484 19.3991C0.46055 20.4655 1.08197 22.5713 2.05512 22.4632C3.27156 22.328 6.33519 22.4632 8.94828 17.7326C10.8571 14.2769 14.7838 10.007 10.0612 10.0071Z" fill="url(#paint0_radial)" />
  <path d="M8.80561 11.8538C6.98126 14.7423 4.52553 18.8811 3.69671 20.1836C2.71151 21.7317 0.102357 21.074 0.318506 18.8549C0.297198 19.0351 0.280832 19.2167 0.269548 19.3995C-0.0873823 25.173 4.49016 29.9676 10.1863 29.9676C16.4643 29.9676 31.4367 22.1455 29.9215 14.3081C28.3245 9.70109 23.8357 6.39673 18.7486 6.39673C13.6615 6.39673 10.4012 9.32752 8.80561 11.8538Z" fill="url(#paint1_radial)" />
  <path d="M8.80561 11.8538C6.98126 14.7423 4.52553 18.8811 3.69671 20.1836C2.71151 21.7317 0.102357 21.074 0.318506 18.8549C0.297198 19.0351 0.280832 19.2167 0.269548 19.3995C-0.0873823 25.173 4.49016 29.9676 10.1863 29.9676C16.4643 29.9676 31.4367 22.1455 29.9215 14.3081C28.3245 9.70109 23.8357 6.39673 18.7486 6.39673C13.6615 6.39673 10.4012 9.32752 8.80561 11.8538Z" fill="url(#paint2_radial)" fill-opacity="0.4" />
  <path d="M8.80561 11.8538C6.98126 14.7423 4.52553 18.8811 3.69671 20.1836C2.71151 21.7317 0.102357 21.074 0.318506 18.8549C0.297198 19.0351 0.280832 19.2167 0.269548 19.3995C-0.0873823 25.173 4.49016 29.9676 10.1863 29.9676C16.4643 29.9676 31.4367 22.1455 29.9215 14.3081C28.3245 9.70109 23.8357 6.39673 18.7486 6.39673C13.6615 6.39673 10.4012 9.32752 8.80561 11.8538Z" fill="url(#paint3_radial)" />
  <path d="M8.80561 11.8538C6.98126 14.7423 4.52553 18.8811 3.69671 20.1836C2.71151 21.7317 0.102357 21.074 0.318506 18.8549C0.297198 19.0351 0.280832 19.2167 0.269548 19.3995C-0.0873823 25.173 4.49016 29.9676 10.1863 29.9676C16.4643 29.9676 31.4367 22.1455 29.9215 14.3081C28.3245 9.70109 23.8357 6.39673 18.7486 6.39673C13.6615 6.39673 10.4012 9.32752 8.80561 11.8538Z" fill="url(#paint4_radial)" fill-opacity="0.6" />
  <path d="M8.80561 11.8538C6.98126 14.7423 4.52553 18.8811 3.69671 20.1836C2.71151 21.7317 0.102357 21.074 0.318506 18.8549C0.297198 19.0351 0.280832 19.2167 0.269548 19.3995C-0.0873823 25.173 4.49016 29.9676 10.1863 29.9676C16.4643 29.9676 31.4367 22.1455 29.9215 14.3081C28.3245 9.70109 23.8357 6.39673 18.7486 6.39673C13.6615 6.39673 10.4012 9.32752 8.80561 11.8538Z" fill="url(#paint5_radial)" fill-opacity="0.9" />
  <path d="M10.0947 29.9703C10.0947 29.9703 25.0847 29.9998 27.6273 29.9998C32.2416 29.9998 35.75 26.2326 35.75 21.8368C35.75 17.4409 32.1712 13.6965 27.6274 13.6965C23.0835 13.6965 20.4668 17.0959 18.5015 20.8065C16.1984 25.1546 13.2606 29.9182 10.0947 29.9703Z" fill="url(#paint6_linear)" />
  <path d="M10.0947 29.9703C10.0947 29.9703 25.0847 29.9998 27.6273 29.9998C32.2416 29.9998 35.75 26.2326 35.75 21.8368C35.75 17.4409 32.1712 13.6965 27.6274 13.6965C23.0835 13.6965 20.4668 17.0959 18.5015 20.8065C16.1984 25.1546 13.2606 29.9182 10.0947 29.9703Z" fill="url(#paint7_radial)" fill-opacity="0.4" />
  <path d="M10.0947 29.9703C10.0947 29.9703 25.0847 29.9998 27.6273 29.9998C32.2416 29.9998 35.75 26.2326 35.75 21.8368C35.75 17.4409 32.1712 13.6965 27.6274 13.6965C23.0835 13.6965 20.4668 17.0959 18.5015 20.8065C16.1984 25.1546 13.2606 29.9182 10.0947 29.9703Z" fill="url(#paint8_radial)" fill-opacity="0.9" />
  <defs>
    <radialGradient id="paint0_radial" cx="0" cy="0" r="1" gradientTransform="matrix(7.1693 8.5904 -11.9745 14.6167 0.944588 11.3042)" gradientUnits="userSpaceOnUse">
      <stop stop-color="#4894FE" />
      <stop offset="0.695072" stop-color="#0934B3" />
    </radialGradient>
    <radialGradient id="paint1_radial" cx="0" cy="0" r="1" gradientTransform="matrix(-31.5168 36.3542 -27.7778 -22.3863 30.9814 -1.57881)" gradientUnits="userSpaceOnUse">
      <stop offset="0.165327" stop-color="#23C0FE" />
      <stop offset="0.534" stop-color="#1C91FF" />
    </radialGradient>
    <radialGradient id="paint2_radial" cx="0" cy="0" r="1" gradientTransform="matrix(-7.49194 -6.28953 -14.0142 17.4729 8.2044 11.9405)" gradientUnits="userSpaceOnUse">
      <stop stop-color="white" />
      <stop offset="0.660528" stop-color="#ADC0FF" stop-opacity="0" />
    </radialGradient>
    <radialGradient id="paint3_radial" cx="0" cy="0" r="1" gradientUnits="userSpaceOnUse" gradientTransform="translate(18.8411 23.5022) rotate(-139.764) scale(11.0257 16.7449)">
      <stop stop-color="#033ACC" />
      <stop offset="1" stop-color="#368EFF" stop-opacity="0" />
    </radialGradient>
    <radialGradient id="paint4_radial" cx="0" cy="0" r="1" gradientTransform="matrix(9.61928 22.1983 -23.9653 10.3826 7.55695 5.651)" gradientUnits="userSpaceOnUse">
      <stop offset="0.592618" stop-color="#3464E3" stop-opacity="0" />
      <stop offset="1" stop-color="#033ACC" />
    </radialGradient>
    <radialGradient id="paint5_radial" cx="0" cy="0" r="1" gradientUnits="userSpaceOnUse" gradientTransform="translate(30.5935 0.933855) rotate(135) scale(35.5871 55.753)">
      <stop stop-color="#4BFDE8" />
      <stop offset="0.543937" stop-color="#4BFDE8" stop-opacity="0" />
    </radialGradient>
    <linearGradient id="paint6_linear" x1="22.9303" y1="29.9833" x2="22.9303" y2="13.8899" gradientUnits="userSpaceOnUse">
      <stop stop-color="#0086FF" />
      <stop offset="0.49" stop-color="#00BBFF" />
    </linearGradient>
    <radialGradient id="paint7_radial" cx="0" cy="0" r="1" gradientTransform="matrix(14.9901 5.94479 -18.9939 25.318 14.5206 15.6139)" gradientUnits="userSpaceOnUse">
      <stop stop-color="white" />
      <stop offset="0.785262" stop-color="white" stop-opacity="0" />
    </radialGradient>
    <radialGradient id="paint8_radial" cx="0" cy="0" r="1" gradientTransform="matrix(-16.7465 14.4333 -19.8515 -12.1758 35.2485 12.4329)" gradientUnits="userSpaceOnUse">
      <stop stop-color="#4BFDE8" />
      <stop offset="0.584724" stop-color="#4BFDE8" stop-opacity="0" />
    </radialGradient>
  </defs>
</svg>
